<svg width="554" height="155" viewBox="0 0 554 155" fill="none" xmlns="http://www.w3.org/2000/svg">
<g clip-path="url(#clip0_2006_2)">
<path d="M158.38 127.88H143.8L138.67 134.54H125.08L156.93 96.3301H169.6L171.15 134.54H158.32L158.38 127.88ZM158.38 118.6L158.44 108.83L150.9 118.6H158.38Z" fill="url(#paint0_linear_2006_2)"/>
<path d="M216.28 117.87C216.943 119.274 217.102 120.863 216.73 122.37C216.379 124.311 215.584 126.145 214.406 127.727C213.228 129.31 211.699 130.598 209.94 131.49C205.786 133.627 201.159 134.676 196.49 134.54H174.43L189.58 96.3301H209.84C214.313 96.3301 217.56 97.1201 219.58 98.7001C221.58 100.29 222.32 102.53 221.75 105.44C221.343 107.567 220.333 109.532 218.84 111.1C217.226 112.782 215.254 114.077 213.07 114.89C214.438 115.504 215.566 116.551 216.28 117.87ZM202.28 124.64C202.736 124.345 203.124 123.958 203.421 123.503C203.717 123.048 203.914 122.536 204 122C204.098 121.673 204.1 121.323 204.004 120.995C203.908 120.667 203.719 120.373 203.46 120.15C202.854 119.679 202.097 119.444 201.33 119.49H193.03L190.65 125.49H199C200.162 125.534 201.312 125.238 202.31 124.64H202.28ZM198.65 105.34L196.42 111H203C205.84 111 207.47 109.89 207.91 107.67C208.002 107.36 208.001 107.03 207.906 106.72C207.812 106.411 207.629 106.136 207.38 105.93C206.671 105.472 205.831 105.261 204.99 105.33L198.65 105.34Z" fill="url(#paint1_linear_2006_2)"/>
<path d="M260.12 106.32H248.77L237.71 134.54H225L236.06 106.32H225.06L228.99 96.3203H264.04L260.12 106.32Z" fill="url(#paint2_linear_2006_2)"/>
<path d="M263.7 133.26C261.194 131.977 259.218 129.853 258.12 127.26C257.02 124.424 256.801 121.323 257.49 118.36C258.315 114.022 260.174 109.947 262.91 106.48C265.625 103.031 269.103 100.259 273.07 98.38C277.128 96.4432 281.573 95.4517 286.07 95.48C289.472 95.3668 292.849 96.1095 295.89 97.64C298.396 98.9234 300.371 101.047 301.47 103.64C302.57 106.476 302.789 109.577 302.1 112.54C301.27 116.877 299.412 120.951 296.68 124.42C293.966 127.874 290.484 130.648 286.51 132.52C282.452 134.459 278.007 135.451 273.51 135.42C270.111 135.531 266.738 134.789 263.7 133.26ZM282.29 123.41C284.026 122.332 285.496 120.876 286.59 119.15C287.746 117.375 288.544 115.391 288.94 113.31C289.199 112.396 289.251 111.436 289.09 110.499C288.929 109.563 288.56 108.675 288.01 107.9C286.95 106.56 285.25 105.9 282.92 105.9C280.932 105.888 278.981 106.435 277.29 107.48C275.553 108.56 274.08 110.016 272.98 111.74C271.833 113.519 271.039 115.501 270.64 117.58C270.38 118.494 270.329 119.454 270.49 120.391C270.651 121.327 271.02 122.215 271.57 122.99C272.63 124.323 274.327 124.99 276.66 124.99C278.647 125.001 280.598 124.453 282.29 123.41Z" fill="url(#paint3_linear_2006_2)"/>
<path d="M340 106.32H328.6L317.54 134.54H304.87L315.93 106.32H304.93L308.86 96.3203H343.91L340 106.32Z" fill="url(#paint4_linear_2006_2)"/>
<path d="M392.79 97.6402C395.224 98.9857 397.115 101.135 398.14 103.72C399.191 106.604 399.382 109.73 398.69 112.72C397.842 116.917 395.935 120.828 393.15 124.08C390.259 127.542 386.667 130.35 382.61 132.32C378.628 134.32 374.236 135.368 369.78 135.38C366.773 135.464 363.79 134.827 361.08 133.52C358.771 132.385 356.878 130.552 355.67 128.28C354.441 125.854 353.934 123.126 354.21 120.42H351.26L345.65 134.5H333L348.15 96.2902H360.82L355.43 109.83H357.88C359.671 106.976 361.933 104.447 364.57 102.35C367.269 100.165 370.31 98.4382 373.57 97.2402C376.747 96.0389 380.114 95.419 383.51 95.4102C386.746 95.3249 389.946 96.094 392.79 97.6402ZM378.36 123.43C380.161 122.365 381.71 120.922 382.9 119.2C384.137 117.471 384.989 115.496 385.4 113.41C385.86 111.09 385.63 109.254 384.71 107.9C384.203 107.218 383.53 106.676 382.754 106.326C381.979 105.976 381.128 105.829 380.28 105.9C378.375 105.924 376.513 106.463 374.89 107.46C373.094 108.52 371.547 109.952 370.35 111.66C369.121 113.382 368.272 115.345 367.86 117.42C367.39 119.79 367.62 121.64 368.54 122.99C369.047 123.673 369.72 124.215 370.496 124.565C371.271 124.915 372.122 125.061 372.97 124.99C374.875 124.967 376.737 124.428 378.36 123.43Z" fill="url(#paint5_linear_2006_2)"/>
<path d="M447.94 96.3301L432.79 134.54H419.9L425.51 120.46H413.61L408 134.54H395.12L410.27 96.3301H423.15L417.76 109.87H429.67L435.06 96.3301H447.94Z" fill="url(#paint6_linear_2006_2)"/>
<path d="M459.92 124.55H472.31L468.31 134.55H437.7L440.84 126.64L459.25 114.35C460.729 113.405 462.107 112.309 463.36 111.08C464.093 110.342 464.605 109.414 464.84 108.4C464.939 108.047 464.939 107.674 464.84 107.322C464.741 106.969 464.547 106.65 464.28 106.4C463.616 105.847 462.762 105.574 461.9 105.64C460.692 105.662 459.508 105.989 458.46 106.59C457.205 107.303 456.076 108.218 455.12 109.3L447.59 104C449.684 101.338 452.382 99.2129 455.46 97.8001C458.709 96.2572 462.263 95.4644 465.86 95.4801C468.37 95.4263 470.863 95.9105 473.17 96.9001C475.057 97.6887 476.644 99.0583 477.7 100.81C478.648 102.511 478.936 104.501 478.51 106.4C477.996 108.908 476.842 111.24 475.16 113.17C472.67 115.859 469.823 118.194 466.7 120.11L459.92 124.55Z" fill="url(#paint7_linear_2006_2)"/>
<path d="M510.62 128H505.54L502.94 134.55H490.44L493 128H473.22L476.47 119.81L501.55 96.3403H515.2L492.6 118H497.6L499.9 112.16H511.8L509.5 118H514.58L510.62 128Z" fill="url(#paint8_linear_2006_2)"/>
<path d="M462.25 25.4001C467.317 28.0582 472.145 31.1498 476.68 34.6401L467.12 38.2601C463.642 35.1584 459.901 32.3646 455.94 29.9101L462.25 25.4001ZM470.11 41.0501C473.342 44.2244 476.315 47.652 479 51.3001L492.62 50.0901C489.024 45.6616 485.035 41.5682 480.7 37.8601L470.11 41.0501ZM438.9 21.8001C443.531 23.4272 448.019 25.4341 452.32 27.8001L457.74 23.1701C452.529 20.7581 447.14 18.7521 441.62 17.1701L438.9 21.8001ZM386.67 13.1801L388.59 15.8101C391.763 15.5901 394.97 15.4801 398.21 15.4801C402.99 15.4801 407.6 15.7001 412.04 16.1101L411.42 12.2301C409.12 12.1235 406.807 12.0668 404.48 12.0601C398.526 12.0543 392.577 12.4284 386.67 13.1801ZM481.61 55.0601C483.948 58.5905 486.063 62.2644 487.94 66.0601C493.74 66.9701 499.75 68.6501 504.94 69.6701C502.462 64.4144 499.514 59.3939 496.13 54.6701L481.61 55.0601ZM416.85 16.6501C422.886 17.4211 428.849 18.6819 434.68 20.4201L436.73 15.8301C430.142 14.2224 423.438 13.1324 416.68 12.5701L416.85 16.6501ZM380 14.2001C370.354 15.9036 360.952 18.7748 352 22.7501L353.17 23.1501C362.517 19.7803 372.226 17.5182 382.1 16.4101L380 14.2001Z" fill="#939393"/>
<path d="M450.38 2.14018C458.786 3.51544 467.064 5.58247 475.13 8.32019L461.92 19.6102C456.194 16.869 450.262 14.5787 444.18 12.7602L450.38 2.14018ZM506.49 23.3502C498.868 18.4752 490.798 14.3397 482.39 11.0002L466.84 22.1202C472.383 25.0885 477.662 28.5243 482.62 32.3902L506.49 23.3502ZM533.38 46.4802C527.388 39.5844 520.639 33.3853 513.26 28.0002L486.94 36.0002C491.633 40.0792 495.923 44.6 499.75 49.5002L533.38 46.4802ZM345.61 20.5702L347.17 20.9502C356.502 16.214 366.393 12.6728 376.61 10.4102L374.19 7.75018C364.228 10.9774 354.645 15.2759 345.61 20.5702ZM381.15 5.66019L383.63 9.04018C390.99 7.81424 398.439 7.19882 405.9 7.20018C407.48 7.20018 409.06 7.20018 410.62 7.28018L409.54 0.60019C399.942 1.41887 390.44 3.11257 381.15 5.66019ZM443.27 1.13019C436.805 0.367789 430.3 -0.00954805 423.79 0.000183505C421.22 0.000183505 418.68 0.0801805 416.14 0.20018L416.46 7.65018C423.984 8.22391 431.444 9.4417 438.76 11.2902L443.27 1.13019ZM503.43 54.5102C506.912 59.6701 509.803 65.2048 512.05 71.0102C529.05 74.3302 542.77 78.2302 553.86 82.5002C550.53 72.1315 545.535 62.3739 539.07 53.6102L503.43 54.5102Z" fill="url(#paint9_linear_2006_2)"/>
<path d="M414.27 49.4603L424.96 54.7003L517.57 39.5703L414.27 49.4603Z" fill="#AD2523"/>
<path d="M0.139893 144.18C4.85989 122.18 19.3199 86.0301 158.24 76.2901C158.24 76.2901 230.58 39.2901 265.81 32.1601C376.44 9.70007 422.36 60.3701 472.86 57.4301C449.6 72.5201 286.48 72.3001 250 85.7701C271.48 75.2401 376.25 58.0601 406.21 58.9001C372.89 41.3001 347.81 27.6601 267.91 38.1501C245.73 41.0701 200.13 60.6801 186.4 74.0901C186.72 79.8501 192.17 84.2501 210.29 85.3001C210.29 85.3001 192.69 88.7501 174.88 85.7701C157.07 82.7901 81.1099 93.4701 55.9599 104.68C82.2599 103.32 116.42 123.44 109.5 154.03C108.66 150.26 102.01 115.65 57.9599 111.03C19.6299 107.09 0.139893 144.18 0.139893 144.18Z" fill="url(#paint10_linear_2006_2)"/>
</g>
<defs>
<linearGradient id="paint0_linear_2006_2" x1="125.08" y1="115.44" x2="302.46" y2="115.44" gradientUnits="userSpaceOnUse">
<stop stop-color="#383938"/>
<stop offset="0.31" stop-color="#646464"/>
<stop offset="0.55" stop-color="#A8A8A8"/>
<stop offset="0.82" stop-color="#525252"/>
<stop offset="1" stop-color="#383938"/>
</linearGradient>
<linearGradient id="paint1_linear_2006_2" x1="125.08" y1="115.44" x2="302.46" y2="115.44" gradientUnits="userSpaceOnUse">
<stop stop-color="#383938"/>
<stop offset="0.31" stop-color="#646464"/>
<stop offset="0.55" stop-color="#A8A8A8"/>
<stop offset="0.82" stop-color="#525252"/>
<stop offset="1" stop-color="#383938"/>
</linearGradient>
<linearGradient id="paint2_linear_2006_2" x1="125.08" y1="115.44" x2="302.46" y2="115.44" gradientUnits="userSpaceOnUse">
<stop stop-color="#383938"/>
<stop offset="0.31" stop-color="#646464"/>
<stop offset="0.55" stop-color="#A8A8A8"/>
<stop offset="0.82" stop-color="#525252"/>
<stop offset="1" stop-color="#383938"/>
</linearGradient>
<linearGradient id="paint3_linear_2006_2" x1="125.08" y1="115.44" x2="302.46" y2="115.44" gradientUnits="userSpaceOnUse">
<stop stop-color="#383938"/>
<stop offset="0.31" stop-color="#646464"/>
<stop offset="0.55" stop-color="#A8A8A8"/>
<stop offset="0.82" stop-color="#525252"/>
<stop offset="1" stop-color="#383938"/>
</linearGradient>
<linearGradient id="paint4_linear_2006_2" x1="375.15" y1="115.43" x2="585.49" y2="115.43" gradientUnits="userSpaceOnUse">
<stop stop-color="#F9C616"/>
<stop offset="0.31" stop-color="#F9C616"/>
<stop offset="0.55" stop-color="#D39E0B"/>
<stop offset="0.82" stop-color="#D39E0D"/>
<stop offset="1" stop-color="#A3A3A2"/>
</linearGradient>
<linearGradient id="paint5_linear_2006_2" x1="375.15" y1="115.43" x2="585.49" y2="115.43" gradientUnits="userSpaceOnUse">
<stop stop-color="#F9C616"/>
<stop offset="0.31" stop-color="#F9C616"/>
<stop offset="0.55" stop-color="#D39E0B"/>
<stop offset="0.82" stop-color="#D39E0D"/>
<stop offset="1" stop-color="#A3A3A2"/>
</linearGradient>
<linearGradient id="paint6_linear_2006_2" x1="375.15" y1="115.43" x2="585.49" y2="115.43" gradientUnits="userSpaceOnUse">
<stop stop-color="#F9C616"/>
<stop offset="0.31" stop-color="#F9C616"/>
<stop offset="0.55" stop-color="#D39E0B"/>
<stop offset="0.82" stop-color="#D39E0D"/>
<stop offset="1" stop-color="#A3A3A2"/>
</linearGradient>
<linearGradient id="paint7_linear_2006_2" x1="375.15" y1="115.43" x2="585.49" y2="115.43" gradientUnits="userSpaceOnUse">
<stop stop-color="#F9C616"/>
<stop offset="0.31" stop-color="#F9C616"/>
<stop offset="0.55" stop-color="#D39E0B"/>
<stop offset="0.82" stop-color="#D39E0D"/>
<stop offset="1" stop-color="#A3A3A2"/>
</linearGradient>
<linearGradient id="paint8_linear_2006_2" x1="375.15" y1="115.43" x2="585.49" y2="115.43" gradientUnits="userSpaceOnUse">
<stop stop-color="#F9C616"/>
<stop offset="0.31" stop-color="#F9C616"/>
<stop offset="0.55" stop-color="#D39E0B"/>
<stop offset="0.82" stop-color="#D39E0D"/>
<stop offset="1" stop-color="#A3A3A2"/>
</linearGradient>
<linearGradient id="paint9_linear_2006_2" x1="553.86" y1="41.2302" x2="345.6" y2="41.2302" gradientUnits="userSpaceOnUse">
<stop stop-color="#3B3B3B"/>
<stop offset="0.31" stop-color="#4B474A"/>
<stop offset="0.55" stop-color="#1D1D1D"/>
<stop offset="0.82" stop-color="#3A383B"/>
<stop offset="1" stop-color="#242424"/>
</linearGradient>
<linearGradient id="paint10_linear_2006_2" x1="-31.1801" y1="90.2101" x2="548.35" y2="90.2101" gradientUnits="userSpaceOnUse">
<stop stop-color="#F9C616"/>
<stop offset="0.39" stop-color="#FFD55B"/>
<stop offset="0.48" stop-color="#FECC46"/>
<stop offset="0.65" stop-color="#FCBE28"/>
<stop offset="0.75" stop-color="#FBB91C"/>
<stop offset="1" stop-color="#D39E0D"/>
</linearGradient>
<clipPath id="clip0_2006_2">
<rect width="554" height="155" fill="white"/>
</clipPath>
</defs>
</svg>
